<svg xmlns="http://www.w3.org/2000/svg" width="256" height="256" viewBox="0 0 100 100"><rect width="100" height="100" rx="20" fill="#8284b6"></rect><path d="M11.20 69.25L11.20 30.75L26.87 30.75Q32.98 30.75 37.65 33.20Q42.33 35.65 44.91 40.02Q47.50 44.39 47.50 50L47.50 50Q47.50 55.61 44.91 59.98Q42.33 64.36 37.65 66.80Q32.98 69.25 26.87 69.25L26.87 69.25L11.20 69.25ZM15.27 65.73L26.65 65.73Q31.71 65.73 35.51 63.72Q39.30 61.72 41.39 58.17Q43.48 54.62 43.48 50L43.48 50Q43.48 45.38 41.39 41.83Q39.30 38.28 35.51 36.28Q31.71 34.27 26.65 34.27L26.65 34.27L15.27 34.27L15.27 65.73ZM80.88 49.39Q84.68 50.22 86.74 52.67Q88.80 55.12 88.80 58.97L88.80 58.97Q88.80 63.91 85.14 66.58Q81.49 69.25 74.34 69.25L74.34 69.25L56.63 69.25L56.63 30.75L73.24 30.75Q79.67 30.75 83.22 33.34Q86.77 35.92 86.77 40.65L86.77 40.65Q86.77 43.84 85.20 46.07Q83.63 48.30 80.88 49.39L80.88 49.39ZM72.96 34.10L60.70 34.10L60.70 48.08L72.96 48.08Q77.64 48.08 80.17 46.29Q82.70 44.50 82.70 41.09L82.70 41.09Q82.70 37.68 80.17 35.89Q77.64 34.10 72.96 34.10L72.96 34.10ZM74.28 65.89Q79.45 65.89 82.09 64.14Q84.73 62.38 84.73 58.63L84.73 58.63Q84.73 51.43 74.28 51.43L74.28 51.43L60.70 51.43L60.70 65.89L74.28 65.89Z" fill="#fff"></path></svg>